<svg width="24" height="24" viewBox="0 0 24 24" fill="none" xmlns="http://www.w3.org/2000/svg">
<path d="M15.0001 17.2045H13.0153V10.7143C13.0153 10.5964 12.9189 10.5 12.801 10.5H11.1939C11.076 10.5 10.9796 10.5964 10.9796 10.7143V17.2045H9.00012C8.82065 17.2045 8.72155 17.4107 8.83137 17.55L11.8314 21.3455C11.8514 21.3711 11.877 21.3919 11.9063 21.4061C11.9355 21.4204 11.9676 21.4278 12.0001 21.4278C12.0326 21.4278 12.0647 21.4204 12.094 21.4061C12.1232 21.3919 12.1488 21.3711 12.1689 21.3455L15.1689 17.55C15.2787 17.4107 15.1796 17.2045 15.0001 17.2045Z" fill="black"/>
<path d="M20.0196 8.10802C18.7929 4.8723 15.667 2.57141 12.0054 2.57141C8.34375 2.57141 5.21786 4.86963 3.99107 8.10534C1.69554 8.70802 0 10.8 0 13.2857C0 16.2455 2.39732 18.6428 5.35446 18.6428H6.42857C6.54643 18.6428 6.64286 18.5464 6.64286 18.4286V16.8214C6.64286 16.7036 6.54643 16.6071 6.42857 16.6071H5.35446C4.45179 16.6071 3.60268 16.2482 2.97054 15.5973C2.34107 14.9491 2.00625 14.0759 2.03571 13.1705C2.05982 12.4634 2.30089 11.7991 2.7375 11.2393C3.18482 10.6687 3.81161 10.2536 4.50804 10.0687L5.52321 9.80355L5.89554 8.8232C6.12589 8.21248 6.44732 7.64195 6.85179 7.12498C7.25108 6.61259 7.72407 6.16217 8.25536 5.78838C9.35625 5.01427 10.6527 4.60445 12.0054 4.60445C13.358 4.60445 14.6545 5.01427 15.7554 5.78838C16.2884 6.16338 16.7598 6.61338 17.1589 7.12498C17.5634 7.64195 17.8848 8.21516 18.1152 8.8232L18.4848 9.80088L19.4973 10.0687C20.9491 10.4598 21.9643 11.7803 21.9643 13.2857C21.9643 14.1723 21.6187 15.008 20.992 15.6348C20.6846 15.944 20.3189 16.1891 19.9162 16.356C19.5134 16.5229 19.0815 16.6083 18.6455 16.6071H17.5714C17.4536 16.6071 17.3571 16.7036 17.3571 16.8214V18.4286C17.3571 18.5464 17.4536 18.6428 17.5714 18.6428H18.6455C21.6027 18.6428 24 16.2455 24 13.2857C24 10.8027 22.3098 8.71338 20.0196 8.10802Z" fill="black"/>
</svg>
