<svg width="24" height="24" viewBox="0 0 24 24" fill="none" xmlns="http://www.w3.org/2000/svg">
<path d="M8.5 5.125C8.75 6.8125 8.4375 3.35312 8.4375 3.25L8.5 5.125ZM8.5 5.125H12H15.5625V3.25C15.375 4.9375 15.5625 3.35312 15.5625 3.25V5.125H17.25V3.25C17.25 2.42266 16.5773 1.75 15.75 1.75H8.25C7.42266 1.75 6.75 2.42266 6.75 3.25V5.125H8.4375H8.5ZM20.25 5.125H3.75C3.33516 5.125 3 5.46016 3 5.875V6.625C3 6.72813 3.08437 6.8125 3.1875 6.8125H4.60312L5.18203 19.0703C5.21953 19.8695 5.88047 20.5 6.67969 20.5H17.3203C18.1219 20.5 18.7805 19.8719 18.818 19.0703L19.3969 6.8125H20.8125C20.9156 6.8125 21 6.72813 21 6.625V5.875C21 5.46016 20.6648 5.125 20.25 5.125Z" fill="#061125"/>
</svg>
