<svg width="12" height="20" viewBox="0 0 12 20" fill="none" xmlns="http://www.w3.org/2000/svg">
<path fill-rule="evenodd" clip-rule="evenodd" d="M10 0C10.5304 0 11.0391 0.210714 11.4142 0.585786C11.7893 0.960859 12 1.46957 12 2C12 2.53043 11.7893 3.03914 11.4142 3.41421C11.0391 3.78929 10.5304 4 10 4C9.46957 4 8.96086 3.78929 8.58579 3.41421C8.21071 3.03914 8 2.53043 8 2C8 1.46957 8.21071 0.960859 8.58579 0.585786C8.96086 0.210714 9.46957 0 10 0ZM10 8C10.5304 8 11.0391 8.21071 11.4142 8.58579C11.7893 8.96086 12 9.46957 12 10C12 10.5304 11.7893 11.0391 11.4142 11.4142C11.0391 11.7893 10.5304 12 10 12C9.46957 12 8.96086 11.7893 8.58579 11.4142C8.21071 11.0391 8 10.5304 8 10C8 9.46957 8.21071 8.96086 8.58579 8.58579C8.96086 8.21071 9.46957 8 10 8ZM2 16C2.53043 16 3.03914 16.2107 3.41421 16.5858C3.78929 16.9609 4 17.4696 4 18C4 18.5304 3.78929 19.0391 3.41421 19.4142C3.03914 19.7893 2.53043 20 2 20C1.46957 20 0.960859 19.7893 0.585786 19.4142C0.210714 19.0391 0 18.5304 0 18C0 17.4696 0.210714 16.9609 0.585786 16.5858C0.960859 16.2107 1.46957 16 2 16ZM10 16C10.5304 16 11.0391 16.2107 11.4142 16.5858C11.7893 16.9609 12 17.4696 12 18C12 18.5304 11.7893 19.0391 11.4142 19.4142C11.0391 19.7893 10.5304 20 10 20C9.46957 20 8.96086 19.7893 8.58579 19.4142C8.21071 19.0391 8 18.5304 8 18C8 17.4696 8.21071 16.9609 8.58579 16.5858C8.96086 16.2107 9.46957 16 10 16ZM2 0C2.53043 0 3.03914 0.210714 3.41421 0.585786C3.78929 0.960859 4 1.46957 4 2C4 2.53043 3.78929 3.03914 3.41421 3.41421C3.03914 3.78929 2.53043 4 2 4C1.46957 4 0.960859 3.78929 0.585786 3.41421C0.210714 3.03914 0 2.53043 0 2C0 1.46957 0.210714 0.960859 0.585786 0.585786C0.960859 0.210714 1.46957 0 2 0ZM2 8C2.53043 8 3.03914 8.21071 3.41421 8.58579C3.78929 8.96086 4 9.46957 4 10C4 10.5304 3.78929 11.0391 3.41421 11.4142C3.03914 11.7893 2.53043 12 2 12C1.46957 12 0.960859 11.7893 0.585786 11.4142C0.210714 11.0391 0 10.5304 0 10C0 9.46957 0.210714 8.96086 0.585786 8.58579C0.960859 8.21071 1.46957 8 2 8Z" fill="#041128"/>
</svg>
