<svg width="22" height="22" viewBox="0 0 22 22" fill="none" xmlns="http://www.w3.org/2000/svg">
<path d="M9.00024 12C9.4297 12.5741 9.9776 13.0491 10.6068 13.3929C11.236 13.7367 11.9318 13.9411 12.6469 13.9923C13.362 14.0435 14.0798 13.9403 14.7516 13.6897C15.4233 13.4392 16.0334 13.047 16.5402 12.54L19.5402 9.53997C20.451 8.59695 20.955 7.33394 20.9436 6.02296C20.9322 4.71198 20.4064 3.45791 19.4793 2.53087C18.5523 1.60383 17.2982 1.07799 15.9872 1.0666C14.6763 1.0552 13.4133 1.55918 12.4702 2.46997L10.7502 4.17997M13.0002 9.99998C12.5707 9.42585 12.0228 8.9508 11.3936 8.60704C10.7645 8.26328 10.0687 8.05886 9.35355 8.00765C8.63841 7.95643 7.92061 8.05961 7.24885 8.3102C6.5771 8.56079 5.96709 8.95291 5.4602 9.45998L2.4602 12.46C1.54941 13.403 1.04544 14.666 1.05683 15.977C1.06822 17.288 1.59407 18.542 2.52111 19.4691C3.44815 20.3961 4.70221 20.922 6.01319 20.9334C7.32418 20.9447 8.58719 20.4408 9.5302 19.53L11.2402 17.82" stroke="#061125" stroke-width="1.5" stroke-linecap="square" stroke-linejoin="round"/>
</svg>
