<svg width="228" height="36" viewBox="0 0 228 36" fill="none" xmlns="http://www.w3.org/2000/svg">
<path d="M41.7712 16.1601L36.2931 4.33522H39.6827L43.5858 13.3255H42.6442L46.5302 4.33522H49.7999L44.3219 16.1601H41.7712Z" fill="#061125"/>
<path d="M51.3556 16.16V4.33508H54.5226V16.16H51.3556Z" fill="#061125"/>
<path d="M62.4656 16.3445C61.1531 16.3445 60.0176 16.0929 59.0589 15.5897C58.1117 15.0865 57.3756 14.3765 56.8506 13.4595C56.337 12.5426 56.0802 11.4692 56.0802 10.2391C56.0802 9.00913 56.337 7.94125 56.8506 7.03551C57.3756 6.11859 58.1117 5.40854 59.0589 4.90535C60.0176 4.40216 61.1531 4.15057 62.4656 4.15057C63.2987 4.15057 64.0576 4.26239 64.7424 4.48603C65.4272 4.69849 66.0035 5.00599 66.4714 5.40854L65.5299 7.84061C65.0049 7.47161 64.5199 7.21442 64.0748 7.06906C63.6411 6.91251 63.1446 6.83424 62.5854 6.83424C61.5583 6.83424 60.7651 7.13056 60.2059 7.7232C59.6581 8.30466 59.3842 9.14331 59.3842 10.2391C59.3842 11.3462 59.6581 12.196 60.2059 12.7886C60.7651 13.3701 61.5583 13.6608 62.5854 13.6608C63.1446 13.6608 63.6411 13.5881 64.0748 13.4428C64.5199 13.2862 65.0049 13.0234 65.5299 12.6544L66.4714 15.0865C66.0035 15.4891 65.4272 15.8022 64.7424 16.0258C64.0576 16.2383 63.2987 16.3445 62.4656 16.3445Z" fill="#061125"/>
<path d="M71.691 16.16V6.83424H68.0275V4.33508H78.5214V6.83424H74.8579V16.16H71.691Z" fill="#061125"/>
<path d="M79.299 10.2391C79.299 9.00913 79.5444 7.94125 80.0351 7.03551C80.5258 6.11859 81.2277 5.40854 82.1407 4.90535C83.0537 4.40216 84.1322 4.15057 85.3762 4.15057C86.6316 4.15057 87.7158 4.40216 88.6288 4.90535C89.5418 5.40854 90.2437 6.11859 90.7344 7.03551C91.2366 7.94125 91.4876 9.00913 91.4876 10.2391C91.4876 11.458 91.2366 12.5258 90.7344 13.4428C90.2437 14.3597 89.5418 15.0753 88.6288 15.5897C87.7158 16.0929 86.6316 16.3445 85.3762 16.3445C84.1322 16.3445 83.0537 16.0929 82.1407 15.5897C81.2391 15.0753 80.5373 14.3597 80.0351 13.4428C79.5444 12.5258 79.299 11.458 79.299 10.2391ZM82.6029 10.2391C82.6029 11.3462 82.8312 12.2128 83.2877 12.8389C83.7442 13.4539 84.4404 13.7614 85.3762 13.7614C86.312 13.7614 87.0139 13.4539 87.4818 12.8389C87.9497 12.2128 88.1837 11.3462 88.1837 10.2391C88.1837 9.13213 87.9497 8.27112 87.4818 7.65611C87.0139 7.0411 86.312 6.7336 85.3762 6.7336C84.4404 6.7336 83.7442 7.0411 83.2877 7.65611C82.8312 8.25993 82.6029 9.12094 82.6029 10.2391Z" fill="#061125"/>
<path d="M93.0431 16.16V4.33508H98.7437C100.136 4.33508 101.209 4.65935 101.962 5.30791C102.727 5.95646 103.109 6.85661 103.109 8.00835C103.109 8.7799 102.938 9.43963 102.595 9.98755C102.253 10.5243 101.757 10.9436 101.106 11.2455C100.456 11.5362 99.6796 11.6816 98.778 11.6816L98.932 11.2623H99.788C100.29 11.2623 100.735 11.3965 101.123 11.6648C101.511 11.9332 101.831 12.3078 102.082 12.7886L103.914 16.16H100.456L98.4869 12.3861C98.3614 12.1401 98.1731 11.9723 97.922 11.8829C97.6824 11.7934 97.4085 11.7487 97.1003 11.7487H96.2101V16.16H93.0431ZM96.2101 9.55146H98.1959C98.8122 9.55146 99.2801 9.43404 99.5997 9.19922C99.9192 8.95322 100.079 8.58981 100.079 8.10898C100.079 7.63934 99.9192 7.28711 99.5997 7.05229C99.2801 6.81747 98.8122 6.70006 98.1959 6.70006H96.2101V9.55146Z" fill="#061125"/>
<path d="M107.913 16.16V10.5075L108.546 12.2183L103.137 4.33508H106.783L109.847 9.08181H109.231L112.295 4.33508H115.822L110.447 12.2183L111.08 10.5075V16.16H107.913Z" fill="#061125"/>
<path d="M20.293 4.01092C27.9118 4.01102 30.8794 8.03636 31.7373 11.1496C32.2114 12.8705 31.9598 14.6878 31.8154 15.7336C31.771 16.0551 31.7374 16.3038 31.7373 16.4543C32.944 17.0346 33.8884 17.2129 34.5322 17.3342C35.2883 17.4766 35.6293 17.5411 35.4932 18.0871C34.7694 18.119 31.1311 18.9375 31.1172 18.9406C30.5818 19.7515 29.3665 21.5194 28.7871 22.1008C28.0627 22.8276 23.4246 28.0172 21.7871 30.0392C20.1496 32.0613 16.0986 32.6374 15.5225 30.1984C15.1137 27.8926 15.4057 27.0623 16.3818 26.2092C16.723 25.9105 17.0035 25.0034 17.1338 23.6574C17.3761 21.1528 17.1336 15.9145 19.8506 14.9806C19.9823 14.8504 20.1939 14.3754 20.5654 13.5646C20.9676 12.6869 21.3085 11.1985 21.7344 10.0519C22.3465 8.40418 22.1074 7.25502 22.0273 6.4992C21.9472 5.74336 21.0868 4.31035 20.293 4.01092ZM12.5059 4.00018C12.3584 4.11048 12.2132 4.23917 12.0732 4.38982C11.5254 4.97966 11.9981 4.98737 12.0088 4.98748C12.0088 4.98748 11.1398 7.66446 11.2559 8.02166C11.3367 8.26908 11.6311 8.5243 11.6309 8.89275C11.6301 9.58062 10.2199 10.7825 10.4854 11.0558C10.7674 11.3451 11.0841 11.2269 11.2559 11.4172C11.5592 11.7538 11.084 11.9322 11.084 12.2306C11.084 12.5291 11.3758 12.3855 11.2559 12.9689C11.1965 13.2607 11.8105 13.1661 11.8105 13.507C11.8103 13.8479 11.5125 14.1461 11.8105 14.6574C12.1089 15.169 12.9645 15.0632 13.8877 14.8254C15.605 14.3829 16.4755 19.4976 16.6318 20.1379V20.1388C16.6352 20.9571 16.6081 23.1063 16.2451 24.5676C16.1286 25.0366 15.901 25.311 15.6191 25.6955C15.2529 26.1952 14.8657 26.7235 14.7441 27.133C14.497 27.9663 14.5897 29.187 14.7441 30.0392C14.9084 30.9459 15.6046 31.7692 15.6191 31.7863H8.84766L0 4.01092L12.5059 4.00018Z" fill="#061125"/>
<path d="M43.3363 31.9998C42.4257 31.9998 41.6288 31.8126 40.9458 31.4381C40.2748 31.0516 39.7536 30.502 39.3821 29.7893C39.0226 29.0646 38.8429 28.207 38.8429 27.2165C38.8429 26.2381 39.0286 25.3986 39.4001 24.698C39.7716 23.9974 40.2928 23.4659 40.9638 23.1035C41.6348 22.7291 42.4257 22.5419 43.3363 22.5419C43.9235 22.5419 44.4927 22.6445 45.0438 22.8499C45.595 23.0431 46.0504 23.321 46.4098 23.6833L45.8167 24.9698C45.4812 24.6436 45.1038 24.402 44.6844 24.245C44.265 24.0759 43.8576 23.9913 43.4622 23.9913C42.5994 23.9913 41.9224 24.2692 41.4311 24.8248C40.9398 25.3805 40.6942 26.1837 40.6942 27.2346C40.6942 28.2976 40.9398 29.1129 41.4311 29.6806C41.9224 30.2483 42.5994 30.5322 43.4622 30.5322C43.8456 30.5322 44.247 30.4597 44.6664 30.3148C45.0858 30.1578 45.4692 29.9101 45.8167 29.5719L46.4098 30.8583C46.0384 31.2207 45.5711 31.5046 45.0079 31.7099C44.4567 31.9032 43.8995 31.9998 43.3363 31.9998Z" fill="#061125"/>
<path d="M53.429 31.9999C51.9671 31.9999 50.8168 31.5831 49.978 30.7497C49.1393 29.9162 48.7199 28.7626 48.7199 27.289C48.7199 26.3347 48.8996 25.5013 49.2591 24.7886C49.6305 24.0759 50.1398 23.5263 50.7868 23.1398C51.4459 22.7412 52.2068 22.5419 53.0695 22.5419C53.9203 22.5419 54.6332 22.7231 55.2084 23.0854C55.7835 23.4478 56.2209 23.9612 56.5205 24.6255C56.82 25.2778 56.9698 26.0509 56.9698 26.9447V27.5245H50.1398V26.4736H55.7296L55.4241 26.7092C55.4241 25.8033 55.2204 25.1027 54.813 24.6074C54.4175 24.1001 53.8424 23.8464 53.0875 23.8464C52.2487 23.8464 51.6017 24.1424 51.1463 24.7342C50.691 25.314 50.4633 26.1173 50.4633 27.144V27.3252C50.4633 28.4003 50.7209 29.2096 51.2362 29.7531C51.7634 30.2967 52.5063 30.5685 53.4649 30.5685C53.9922 30.5685 54.4834 30.496 54.9388 30.3511C55.4061 30.194 55.8494 29.9404 56.2688 29.5901L56.862 30.8403C56.4426 31.2147 55.9333 31.5046 55.3342 31.71C54.7351 31.9032 54.1 31.9999 53.429 31.9999Z" fill="#061125"/>
<path d="M60.2013 32.0001V25.0606C60.2013 24.7103 60.1834 24.354 60.1474 23.9916C60.1234 23.6172 60.0935 23.2427 60.0575 22.8683H61.819L61.9807 24.7889H61.765C62.0406 24.1124 62.466 23.5991 63.0412 23.2488C63.6163 22.8864 64.2814 22.7052 65.0363 22.7052C66.1027 22.7052 66.9055 23.0011 67.4447 23.593C67.9959 24.1849 68.2715 25.1029 68.2715 26.3471V32.0001H66.4562V26.4558C66.4562 25.6465 66.2944 25.0667 65.9709 24.7164C65.6594 24.354 65.1801 24.1728 64.533 24.1728C63.7661 24.1728 63.155 24.4144 62.6997 24.8976C62.2443 25.3687 62.0167 26.0088 62.0167 26.8182V32.0001H60.2013Z" fill="#061125"/>
<path d="M76.1075 31.9998C75.1249 31.9998 74.382 31.7341 73.8788 31.2026C73.3755 30.659 73.1239 29.8497 73.1239 28.7747V24.1182H71.3624V22.7049H73.1239V20.2951L74.9392 19.8059V22.7049H77.4555V24.1182H74.9392V28.6116C74.9392 29.2881 75.059 29.7712 75.2987 30.0611C75.5383 30.351 75.8858 30.496 76.3412 30.496C76.5688 30.496 76.7665 30.4779 76.9343 30.4416C77.114 30.3933 77.2758 30.3389 77.4196 30.2785V31.7643C77.2399 31.8368 77.0302 31.8911 76.7905 31.9274C76.5509 31.9757 76.3232 31.9998 76.1075 31.9998Z" fill="#061125"/>
<path d="M85.2512 31.9999C83.7894 31.9999 82.6391 31.5831 81.8003 30.7497C80.9615 29.9162 80.5421 28.7626 80.5421 27.289C80.5421 26.3347 80.7219 25.5013 81.0813 24.7886C81.4528 24.0759 81.9621 23.5263 82.6091 23.1398C83.2681 22.7412 84.029 22.5419 84.8918 22.5419C85.7425 22.5419 86.4555 22.7231 87.0306 23.0854C87.6058 23.4478 88.0432 23.9612 88.3427 24.6255C88.6423 25.2778 88.7921 26.0509 88.7921 26.9447V27.5245H81.9621V26.4736H87.5519L87.2463 26.7092C87.2463 25.8033 87.0426 25.1027 86.6352 24.6074C86.2398 24.1001 85.6646 23.8464 84.9097 23.8464C84.071 23.8464 83.4239 24.1424 82.9686 24.7342C82.5132 25.314 82.2856 26.1173 82.2856 27.144V27.3252C82.2856 28.4003 82.5432 29.2096 83.0584 29.7531C83.5857 30.2967 84.3286 30.5685 85.2872 30.5685C85.8144 30.5685 86.3057 30.496 86.761 30.3511C87.2284 30.194 87.6717 29.9404 88.0911 29.5901L88.6842 30.8403C88.2648 31.2147 87.7556 31.5046 87.1565 31.71C86.5573 31.9032 85.9223 31.9999 85.2512 31.9999Z" fill="#061125"/>
<path d="M92.7672 32.0001V25.1331C92.7672 24.7587 92.7552 24.3842 92.7312 24.0098C92.7192 23.6232 92.6953 23.2427 92.6593 22.8683H94.4207L94.6185 25.2237H94.3309C94.4507 24.656 94.6544 24.1849 94.942 23.8105C95.2296 23.436 95.5771 23.1582 95.9845 22.977C96.4038 22.7958 96.8412 22.7052 97.2965 22.7052C97.4883 22.7052 97.65 22.7173 97.7818 22.7414C97.9136 22.7535 98.0454 22.7777 98.1772 22.8139L98.1593 24.4446C97.9556 24.3601 97.7758 24.3117 97.6201 24.2997C97.4763 24.2755 97.2965 24.2634 97.0809 24.2634C96.5536 24.2634 96.1043 24.3842 95.7328 24.6258C95.3614 24.8553 95.0798 25.1694 94.8881 25.568C94.6963 25.9666 94.6005 26.3954 94.6005 26.8544V32.0001H92.7672Z" fill="#061125"/>
</svg>
