<svg width="92" height="78" viewBox="0 0 92 78" fill="none" xmlns="http://www.w3.org/2000/svg">
<path d="M49.5088 0.955597C70.4507 0.955718 78.6065 12.017 80.9648 20.5738C82.2685 25.3041 81.5796 30.2987 81.1826 33.1734C81.0604 34.0585 80.9658 34.7431 80.9658 35.1568C84.2829 36.7517 86.8798 37.2403 88.6494 37.5738C90.7275 37.9653 91.6651 38.1424 91.291 39.6431C89.3 39.7303 79.2617 41.9898 79.2617 41.9898C77.7902 44.2185 74.4492 49.0753 72.8564 50.6734C70.8657 52.6707 58.1184 66.937 53.6172 72.4947C49.1161 78.0523 37.9793 79.6354 36.3955 72.9322C35.2717 66.5942 36.0746 64.3121 38.7578 61.9673C39.6959 61.1472 40.4671 58.6535 40.8252 54.9527C41.4913 48.0687 40.8253 33.6715 48.2939 31.105C48.6559 30.7467 49.2378 29.4421 50.2588 27.2144C51.3645 24.8019 52.3017 20.7097 53.4727 17.5581C55.1552 13.0295 54.4983 9.87185 54.2783 7.79446C54.0584 5.7172 51.691 1.77867 49.5088 0.955597ZM28.1162 0.925323C27.7112 1.22836 27.3122 1.58086 26.9277 1.99466C25.4043 3.6347 26.751 3.63821 26.751 3.63821C26.751 3.63821 24.3616 10.9983 24.6816 11.9781C24.904 12.6581 25.7121 13.3597 25.7109 14.3726C25.7084 16.2637 21.8318 19.5675 22.5635 20.3179C23.3389 21.1127 24.2096 20.7865 24.6816 21.3101C25.5153 22.2351 24.2094 22.7254 24.209 23.5454C24.209 24.3657 25.0112 23.9704 24.6816 25.5738C24.5165 26.3773 26.2051 26.1158 26.2051 27.0533C26.2049 27.9906 25.3849 28.8113 26.2051 30.2173C27.0255 31.6232 29.3782 31.3301 31.916 30.6763C36.5973 29.4709 38.9891 43.2888 39.4473 45.2329C39.4577 47.4436 39.3881 53.4095 38.3828 57.4556C38.0625 58.7446 37.4367 59.4985 36.6621 60.5552C35.6555 61.9286 34.5918 63.3808 34.2578 64.5064C33.5785 66.7971 33.8333 70.1522 34.2578 72.4947C34.7108 74.9937 36.6332 77.2624 36.6621 77.2964H24.3203L0 0.955597L28.1162 0.925323Z" fill="#0C2146"/>
</svg>
