<svg width="20" height="20" viewBox="0 0 20 20" fill="none" xmlns="http://www.w3.org/2000/svg">
<path d="M13 3.76395C12.6897 3.76395 12.3836 3.69173 12.106 3.55302L7.894 1.44702C7.6164 1.3083 7.31033 1.23608 7 1.23608M13 3.76395C13.3103 3.76395 13.6164 3.69173 13.894 3.55302L17.553 1.72302C17.7056 1.64678 17.8751 1.61083 18.0455 1.61858C18.2159 1.62634 18.3814 1.67755 18.5265 1.76735C18.6715 1.85714 18.7911 1.98253 18.874 2.1316C18.9569 2.28067 19.0003 2.44846 19 2.61902V15.383C18.9999 15.5687 18.9481 15.7506 18.8505 15.9085C18.7528 16.0664 18.6131 16.194 18.447 16.277L13.894 18.554C13.6164 18.6927 13.3103 18.7649 13 18.7649C12.6897 18.7649 12.3836 18.6927 12.106 18.554L7.894 16.448C7.6164 16.3093 7.31033 16.2371 7 16.2371C6.68967 16.2371 6.3836 16.3093 6.106 16.448L2.447 18.278C2.29436 18.3543 2.12473 18.3902 1.95426 18.3824C1.78379 18.3746 1.61816 18.3233 1.47312 18.2334C1.32808 18.1435 1.20846 18.018 1.12565 17.8688C1.04284 17.7196 0.999582 17.5517 1 17.381V4.61802C1.0001 4.43235 1.05189 4.25039 1.14956 4.09249C1.24722 3.93459 1.38692 3.80701 1.553 3.72402L6.106 1.44702C6.3836 1.3083 6.68967 1.23608 7 1.23608M13 3.76395L13 18.7639M7 1.23608L7 16.2361" stroke="#061125" stroke-width="1.5" stroke-linecap="square" stroke-linejoin="round"/>
</svg>
