<svg width="231" height="236" viewBox="0 0 231 236" fill="none" xmlns="http://www.w3.org/2000/svg">
<path d="M230.5 114.987C230.5 178.38 178.909 229.94 115.5 229.94C52.0908 229.94 0.5 178.38 0.5 114.987C0.5 51.5769 52.0908 -0.0012207 115.5 -0.0012207C178.909 -0.0012207 230.5 51.5769 230.5 114.987ZM41.9276 227.652C42.5019 228.558 42.795 229.614 42.7699 230.686C42.7449 231.759 42.4028 232.8 41.7869 233.678C41.1709 234.556 40.3087 235.233 39.3088 235.622C38.3089 236.011 37.2162 236.095 36.1684 235.864C35.1206 235.633 34.1646 235.098 33.421 234.324C32.6773 233.551 32.1794 232.575 31.9898 231.519C31.8002 230.464 31.9275 229.375 32.3557 228.392C32.7839 227.408 33.4938 226.573 34.3958 225.993C34.9992 225.606 35.6728 225.343 36.378 225.218C37.0833 225.092 37.8064 225.107 38.5059 225.261C39.2055 225.415 39.8678 225.706 40.4549 226.116C41.0421 226.526 41.5425 227.048 41.9276 227.652ZM15.2604 20.1567C15.7425 20.9176 15.9884 21.8041 15.9673 22.7045C15.9461 23.6049 15.6588 24.4789 15.1416 25.2164C14.6243 25.9538 13.9003 26.5216 13.0607 26.8482C12.2211 27.1749 11.3036 27.2457 10.4238 27.0518C9.54405 26.8579 8.74137 26.408 8.11699 25.7587C7.49261 25.1094 7.07448 24.2899 6.9153 23.4034C6.75612 22.5169 6.86302 21.6031 7.22252 20.7773C7.58203 19.9514 8.17804 19.2505 8.93544 18.7627C9.44214 18.4386 10.0078 18.2175 10.6001 18.1121C11.1923 18.0067 11.7996 18.0191 12.387 18.1486C12.9745 18.2781 13.5306 18.5221 14.0237 18.8666C14.5167 19.2112 14.937 19.6496 15.2604 20.1567Z" fill="#D6DCE8"/>
<path d="M163.92 37.9222V204.778C163.92 207.971 162.651 211.033 160.392 213.291C158.133 215.549 155.07 216.818 151.876 216.818H30.606C27.4118 216.818 24.3485 215.549 22.09 213.291C19.8314 211.033 18.5625 207.971 18.5625 204.778V37.9222C18.5625 31.2725 23.9546 25.8818 32.4151 25.8818H153.685C158.527 25.8821 163.92 31.2725 163.92 37.9222Z" fill="#F9FAFD"/>
<path d="M125.855 198.401H56.629C56.1399 198.401 55.6708 198.207 55.3249 197.861C54.979 197.515 54.7847 197.046 54.7847 196.557C54.7847 196.068 54.979 195.599 55.3249 195.253C55.6708 194.908 56.1399 194.713 56.629 194.713H125.855C126.345 194.713 126.814 194.908 127.159 195.253C127.505 195.599 127.7 196.068 127.7 196.557C127.7 197.046 127.505 197.515 127.159 197.861C126.814 198.207 126.345 198.401 125.855 198.401ZM143.657 181.932H38.8287C38.3395 181.932 37.8704 181.738 37.5246 181.392C37.1787 181.046 36.9844 180.577 36.9844 180.088C36.9844 179.599 37.1787 179.13 37.5246 178.784C37.8704 178.439 38.3395 178.244 38.8287 178.244H143.657C144.146 178.244 144.615 178.439 144.961 178.784C145.307 179.13 145.501 179.599 145.501 180.088C145.501 180.577 145.307 181.046 144.961 181.392C144.615 181.738 144.146 181.932 143.657 181.932H143.657ZM143.25 62.9689H117.431C116.942 62.9689 116.473 62.7746 116.127 62.4288C115.781 62.0831 115.587 61.6141 115.587 61.1251C115.587 60.6361 115.781 60.1671 116.127 59.8213C116.473 59.4755 116.942 59.2812 117.431 59.2812H143.25C143.739 59.2812 144.208 59.4755 144.554 59.8213C144.9 60.1671 145.094 60.6361 145.094 61.1251C145.094 61.6141 144.9 62.0831 144.554 62.4288C144.208 62.7746 143.739 62.9689 143.25 62.9689Z" fill="#D6DCE8"/>
<path d="M103.124 62.8956H79.5544C79.322 62.8956 79.092 62.8498 78.8773 62.7609C78.6627 62.672 78.4676 62.5417 78.3033 62.3774C78.1391 62.2131 78.0087 62.0181 77.9198 61.8034C77.8309 61.5888 77.7852 61.3587 77.7852 61.1264C77.7852 60.8941 77.8309 60.664 77.9198 60.4493C78.0087 60.2347 78.1391 60.0397 78.3033 59.8754C78.4676 59.7111 78.6627 59.5808 78.8773 59.4919C79.092 59.4029 79.322 59.3572 79.5544 59.3572H103.125C103.594 59.3572 104.044 59.5436 104.376 59.8754C104.707 60.2072 104.894 60.6572 104.894 61.1264C104.894 61.5956 104.707 62.0456 104.376 62.3774C104.044 62.7092 103.594 62.8956 103.124 62.8956Z" fill="url(#paint0_linear_180_482)"/>
<path d="M122.875 74.2223H92.2096C91.7204 74.2223 91.2513 74.028 90.9054 73.6821C90.5596 73.3362 90.3653 72.8671 90.3653 72.378C90.3653 71.8889 90.5596 71.4197 90.9054 71.0739C91.2513 70.728 91.7204 70.5337 92.2096 70.5337H122.875C123.364 70.5337 123.833 70.728 124.179 71.0739C124.525 71.4197 124.719 71.8889 124.719 72.378C124.719 72.8671 124.525 73.3362 124.179 73.6821C123.833 74.028 123.364 74.2223 122.875 74.2223ZM84.2434 74.2223H79.5552C79.0661 74.2223 78.597 74.028 78.2511 73.6821C77.9052 73.3362 77.7109 72.8671 77.7109 72.378C77.7109 71.8889 77.9052 71.4197 78.2511 71.0739C78.597 70.728 79.0661 70.5337 79.5552 70.5337H84.2434C84.7326 70.5337 85.2017 70.728 85.5475 71.0739C85.8934 71.4197 86.0877 71.8889 86.0877 72.378C86.0877 72.8671 85.8934 73.3362 85.5475 73.6821C85.2017 74.028 84.7326 74.2223 84.2434 74.2223Z" fill="#D6DCE8"/>
<path d="M39.2305 57.1192V76.3849C39.2305 77.0996 39.5145 77.7852 40.02 78.2906C40.2704 78.5408 40.5676 78.7394 40.8946 78.8748C41.2217 79.0102 41.5722 79.08 41.9263 79.08H62.3056C63.0206 79.08 63.7062 78.796 64.2118 78.2906C64.7174 77.7852 65.0014 77.0996 65.0014 76.3849V57.1192C65.0014 56.4044 64.7174 55.7189 64.2118 55.2134C63.7062 54.708 63.0206 54.4241 62.3056 54.4241H41.9263C41.2113 54.4241 40.5256 54.708 40.02 55.2134C39.5145 55.7189 39.2305 56.4044 39.2305 57.1192Z" fill="url(#paint1_linear_180_482)"/>
<path d="M143.251 105.166H123.593C123.124 105.166 122.674 104.98 122.342 104.648C122.011 104.316 121.824 103.866 121.824 103.397C121.824 102.928 122.011 102.478 122.342 102.146C122.674 101.814 123.124 101.628 123.593 101.628H143.251C143.721 101.628 144.171 101.814 144.502 102.146C144.834 102.478 145.021 102.928 145.021 103.397C145.021 103.866 144.834 104.316 144.502 104.648C144.171 104.98 143.721 105.166 143.251 105.166Z" fill="url(#paint2_linear_180_482)"/>
<path d="M103.126 105.24H79.5552C79.0661 105.24 78.597 105.046 78.2511 104.7C77.9052 104.355 77.7109 103.886 77.7109 103.397C77.7109 102.908 77.9052 102.439 78.2511 102.093C78.597 101.747 79.0661 101.553 79.5552 101.553H103.126C103.615 101.553 104.084 101.747 104.43 102.093C104.776 102.439 104.97 102.908 104.97 103.397C104.97 103.886 104.776 104.355 104.43 104.7C104.084 105.046 103.615 105.24 103.126 105.24ZM122.875 116.492H92.2096C91.9674 116.492 91.7275 116.445 91.5038 116.352C91.28 116.259 91.0767 116.124 90.9054 115.952C90.7342 115.781 90.5983 115.578 90.5057 115.354C90.413 115.131 90.3653 114.891 90.3653 114.649C90.3653 114.407 90.413 114.167 90.5057 113.943C90.5983 113.719 90.7342 113.516 90.9054 113.345C91.0767 113.174 91.28 113.038 91.5038 112.945C91.7275 112.853 91.9674 112.805 92.2096 112.805H122.875C123.364 112.805 123.833 112.999 124.179 113.345C124.525 113.691 124.719 114.16 124.719 114.649C124.719 115.138 124.525 115.607 124.179 115.952C123.833 116.298 123.364 116.492 122.875 116.492ZM84.2434 116.492H79.5552C79.313 116.492 79.0732 116.445 78.8495 116.352C78.6257 116.259 78.4224 116.124 78.2511 115.952C78.0799 115.781 77.944 115.578 77.8513 115.354C77.7586 115.131 77.7109 114.891 77.7109 114.649C77.7109 114.407 77.7586 114.167 77.8513 113.943C77.944 113.719 78.0799 113.516 78.2511 113.345C78.4224 113.174 78.6257 113.038 78.8495 112.945C79.0732 112.853 79.313 112.805 79.5552 112.805H84.2434C84.4856 112.805 84.7254 112.853 84.9492 112.945C85.173 113.038 85.3763 113.174 85.5475 113.345C85.7188 113.516 85.8546 113.719 85.9473 113.943C86.04 114.167 86.0877 114.407 86.0877 114.649C86.0877 114.891 86.04 115.131 85.9473 115.354C85.8546 115.578 85.7188 115.781 85.5475 115.952C85.3763 116.124 85.173 116.259 84.9492 116.352C84.7254 116.445 84.4856 116.492 84.2434 116.492Z" fill="#D6DCE8"/>
<path d="M39.2305 99.3894V118.655C39.2305 119.37 39.5145 120.055 40.02 120.561C40.2704 120.811 40.5676 121.009 40.8946 121.145C41.2217 121.28 41.5722 121.35 41.9263 121.35H62.3056C63.0206 121.35 63.7062 121.066 64.2118 120.561C64.7174 120.055 65.0014 119.37 65.0014 118.655V99.3894C65.0014 98.6746 64.7174 97.9891 64.2118 97.4837C63.7062 96.9783 63.0206 96.6943 62.3056 96.6943H41.9263C41.2113 96.6943 40.5256 96.9783 40.02 97.4837C39.5145 97.9891 39.2305 98.6746 39.2305 99.3894Z" fill="url(#paint3_linear_180_482)"/>
<path d="M143.249 147.436H117.429C116.96 147.436 116.51 147.25 116.178 146.918C115.847 146.586 115.66 146.136 115.66 145.667C115.66 145.198 115.847 144.748 116.178 144.416C116.51 144.084 116.96 143.898 117.429 143.898H143.249C143.718 143.898 144.168 144.084 144.5 144.416C144.832 144.748 145.018 145.198 145.018 145.667C145.018 146.136 144.832 146.586 144.5 146.918C144.168 147.25 143.718 147.436 143.249 147.436Z" fill="url(#paint4_linear_180_482)"/>
<path d="M103.126 147.51H79.5552C79.0661 147.51 78.597 147.316 78.2511 146.97C77.9052 146.625 77.7109 146.156 77.7109 145.667C77.7109 145.178 77.9052 144.709 78.2511 144.363C78.597 144.017 79.0661 143.823 79.5552 143.823H103.126C103.615 143.823 104.084 144.017 104.43 144.363C104.776 144.709 104.97 145.178 104.97 145.667C104.97 146.156 104.776 146.625 104.43 146.97C104.084 147.316 103.615 147.51 103.126 147.51ZM122.875 158.762H92.2096C91.7204 158.762 91.2513 158.567 90.9054 158.222C90.5596 157.876 90.3653 157.407 90.3653 156.918C90.3653 156.429 90.5596 155.96 90.9054 155.614C91.2513 155.268 91.7204 155.074 92.2096 155.074H122.875C123.364 155.074 123.833 155.268 124.179 155.614C124.525 155.96 124.719 156.429 124.719 156.918C124.719 157.407 124.525 157.876 124.179 158.222C123.833 158.567 123.364 158.762 122.875 158.762Z" fill="#D6DCE8"/>
<path d="M84.2433 158.688H79.5544C79.0851 158.688 78.6351 158.501 78.3033 158.17C77.9716 157.838 77.7852 157.388 77.7852 156.919C77.7852 156.449 77.9716 155.999 78.3033 155.668C78.6351 155.336 79.0851 155.149 79.5544 155.149H84.2433C84.7126 155.149 85.1626 155.336 85.4944 155.668C85.8261 155.999 86.0125 156.449 86.0125 156.919C86.0125 157.388 85.8261 157.838 85.4944 158.17C85.1626 158.501 84.7126 158.688 84.2433 158.688Z" fill="url(#paint5_linear_180_482)"/>
<path d="M39.2305 141.66V160.926C39.2305 161.28 39.3002 161.63 39.4357 161.957C39.5712 162.284 39.7697 162.581 40.02 162.831C40.2704 163.082 40.5676 163.28 40.8946 163.416C41.2217 163.551 41.5722 163.621 41.9263 163.621H62.3056C62.6596 163.621 63.0102 163.551 63.3372 163.416C63.6643 163.28 63.9615 163.082 64.2118 162.831C64.4621 162.581 64.6607 162.284 64.7962 161.957C64.9317 161.63 65.0014 161.28 65.0014 160.926V141.66C65.0014 140.945 64.7174 140.26 64.2118 139.754C63.7062 139.249 63.0206 138.965 62.3056 138.965H41.9263C41.5722 138.965 41.2217 139.034 40.8946 139.17C40.5675 139.305 40.2703 139.504 40.02 139.754C39.7696 140.004 39.5711 140.302 39.4356 140.629C39.3001 140.956 39.2304 141.306 39.2305 141.66Z" fill="url(#paint6_linear_180_482)"/>
<path d="M123.389 19.3956V31.7906C123.389 32.5569 123.085 33.2918 122.543 33.8336C122.001 34.3755 121.266 34.6799 120.499 34.6799H61.9799C61.2134 34.6799 60.4783 34.3755 59.9363 33.8336C59.3943 33.2918 59.0898 32.5569 59.0898 31.7906V19.3956C59.0901 18.6295 59.3947 17.8948 59.9367 17.3532C60.4786 16.8116 61.2136 16.5073 61.9799 16.5073H73.0451L77.2012 4.7811C77.4319 4.13002 77.8588 3.56641 78.4231 3.1678C78.9873 2.76919 79.6613 2.55517 80.3522 2.55518H102.13C102.82 2.55521 103.494 2.7689 104.058 3.1669C104.622 3.5649 105.049 4.12768 105.28 4.77797L109.451 16.5071H120.501C121.267 16.5076 122.002 16.8121 122.543 17.3537C123.085 17.8953 123.389 18.6297 123.389 19.3956Z" fill="url(#paint7_linear_180_482)"/>
<path d="M95.5479 12.295C95.551 13.1504 95.2999 13.9875 94.8264 14.7001C94.3529 15.4126 93.6784 15.9685 92.8885 16.2973C92.0985 16.6261 91.2287 16.7129 90.3893 16.5467C89.5499 16.3806 88.7788 15.9689 88.1738 15.364C87.5688 14.759 87.1571 13.9881 86.991 13.1489C86.8249 12.3097 86.9119 11.4401 87.2408 10.6504C87.5698 9.86073 88.1259 9.18648 88.8387 8.71322C89.5515 8.23997 90.3889 7.98902 91.2445 7.99222C92.3843 7.9975 93.4759 8.45253 94.2818 9.25833C95.0877 10.0641 95.5427 11.1555 95.5479 12.295ZM109.923 27.7333H72.5606C72.326 27.7333 72.101 27.6402 71.9351 27.4743C71.7692 27.3085 71.676 27.0835 71.676 26.849C71.676 26.6144 71.7692 26.3895 71.9351 26.2236C72.101 26.0578 72.326 25.9646 72.5606 25.9646H109.923C110.158 25.9646 110.383 26.0578 110.549 26.2236C110.715 26.3895 110.808 26.6144 110.808 26.849C110.808 27.0835 110.715 27.3085 110.549 27.4743C110.383 27.6402 110.158 27.7333 109.923 27.7333H109.923Z" fill="white"/>
<path d="M224.079 216.32C223.022 217.279 221.786 218.02 220.442 218.5C219.098 218.98 217.673 219.19 216.247 219.118C214.822 219.045 213.425 218.692 212.137 218.078C210.848 217.465 209.694 216.603 208.74 215.542L183.864 188.038C183.528 187.672 183.268 187.242 183.101 186.774C182.934 186.306 182.862 185.81 182.891 185.314C182.906 184.815 183.023 184.326 183.237 183.875C183.45 183.425 183.754 183.023 184.13 182.696L184.165 182.66L174.664 172.172C176.597 170.837 178.441 169.378 180.184 167.803C181.928 166.221 183.571 164.532 185.103 162.744L194.586 173.233L194.621 173.198C195.366 172.528 196.346 172.179 197.347 172.229C198.348 172.279 199.289 172.722 199.964 173.463L224.857 200.985C225.816 202.041 226.557 203.277 227.037 204.621C227.517 205.964 227.727 207.389 227.655 208.814C227.583 210.239 227.229 211.636 226.616 212.924C226.002 214.212 225.14 215.366 224.079 216.32Z" fill="#989FB0"/>
<path d="M186.521 92.0112C165.979 69.3349 130.806 67.5844 108.09 88.1014C97.1708 97.9761 90.6227 111.783 89.886 126.484C89.1493 141.185 94.2844 155.577 104.162 166.493C114.039 177.409 127.849 183.956 142.554 184.692C157.259 185.429 171.655 180.295 182.574 170.42C193.684 160.55 200.939 145.575 200.939 129.261C200.937 115.484 195.796 102.202 186.521 92.0112ZM143.404 167.75C138.344 167.511 133.381 166.27 128.804 164.099C124.228 161.928 120.127 158.87 116.741 155.103C102.48 139.343 103.702 114.917 119.466 100.678C123.214 97.2649 127.602 94.6301 132.376 92.9267C137.151 91.2233 142.216 90.4851 147.278 90.7551C168.151 91.7977 183.883 109.044 183.883 129.243C183.887 134.469 182.828 139.64 180.769 144.443C178.711 149.247 175.697 153.581 171.911 157.183C168.124 160.785 163.644 163.579 158.744 165.396C153.843 167.212 148.624 168.013 143.404 167.75Z" fill="#989FB0"/>
<path d="M49.0236 70.0917L46.5667 67.0048C46.4205 66.8233 46.3117 66.6147 46.2465 66.391C46.1812 66.1672 46.1609 65.9328 46.1866 65.7012C46.2122 65.4696 46.2835 65.2454 46.3961 65.0414C46.5088 64.8374 46.6607 64.6577 46.8431 64.5126C47.0254 64.3675 47.2347 64.2598 47.4588 64.1958C47.683 64.1319 47.9175 64.1128 48.1491 64.1397C48.3806 64.1667 48.6045 64.2391 48.8079 64.3529C49.0113 64.4666 49.1903 64.6195 49.3344 64.8026L50.7131 66.5333L55.2104 63.1063C55.5838 62.8218 56.0549 62.6973 56.5202 62.7601C56.9854 62.8228 57.4067 63.0678 57.6912 63.4411C57.9758 63.8144 58.1004 64.2854 58.0376 64.7505C57.9748 65.2157 57.7297 65.6368 57.3563 65.9213L51.4804 70.3974C51.1122 70.6778 50.6488 70.8028 50.1896 70.7457C49.7303 70.6885 49.3118 70.4537 49.0236 70.0917Z" fill="white"/>
<path d="M49.0236 112.361L46.5667 109.275C46.4205 109.094 46.3117 108.885 46.2465 108.661C46.1812 108.438 46.1609 108.203 46.1866 107.972C46.2122 107.74 46.2835 107.516 46.3961 107.312C46.5088 107.108 46.6607 106.928 46.8431 106.783C47.0254 106.638 47.2347 106.53 47.4588 106.466C47.683 106.402 47.9175 106.383 48.1491 106.41C48.3806 106.437 48.6045 106.51 48.8079 106.623C49.0113 106.737 49.1903 106.89 49.3344 107.073L50.7144 108.804L55.2107 105.377C55.5841 105.092 56.0552 104.968 56.5204 105.031C56.9857 105.093 57.4069 105.338 57.6915 105.712C57.9761 106.085 58.1007 106.556 58.0379 107.021C57.975 107.486 57.73 107.907 57.3566 108.192L51.4804 112.667C51.1122 112.947 50.6488 113.072 50.1896 113.015C49.7304 112.958 49.3118 112.723 49.0236 112.361Z" fill="white"/>
<path d="M49.0253 154.632L46.5684 151.545C46.4237 151.364 46.3163 151.155 46.2522 150.932C46.1881 150.709 46.1687 150.475 46.1949 150.244C46.2212 150.014 46.2926 149.79 46.4052 149.587C46.5177 149.384 46.6692 149.205 46.851 149.061C47.0327 148.916 47.2412 148.809 47.4644 148.745C47.6877 148.68 47.9214 148.661 48.1522 148.687C48.383 148.713 48.6064 148.785 48.8095 148.897C49.0127 149.01 49.1917 149.161 49.3364 149.343L50.7161 151.074L55.2134 147.647C55.3983 147.506 55.6091 147.403 55.8338 147.343C56.0586 147.284 56.2928 147.269 56.5232 147.301C56.7535 147.332 56.9755 147.408 57.1765 147.525C57.3774 147.642 57.5533 147.797 57.6942 147.982C57.8351 148.166 57.9383 148.377 57.9977 148.602C58.0571 148.827 58.0717 149.061 58.0406 149.291C58.0095 149.521 57.9333 149.743 57.8164 149.944C57.6996 150.145 57.5442 150.321 57.3594 150.462L51.4821 154.938C51.1139 155.218 50.6505 155.343 50.1913 155.286C49.7321 155.229 49.3135 154.994 49.0253 154.632Z" fill="white"/>
<path d="M196.021 80.2961C195.648 80.296 195.284 80.1829 194.977 79.9716C194.669 79.7604 194.433 79.461 194.3 79.1128C194.166 78.7647 194.141 78.3843 194.228 78.0217C194.315 77.6592 194.51 77.3315 194.787 77.082L206.622 66.4307C206.985 66.1036 207.464 65.9342 207.952 65.9599C208.44 65.9856 208.899 66.2041 209.226 66.5675C209.553 66.9309 209.722 67.4094 209.697 67.8977C209.671 68.3859 209.452 68.844 209.089 69.1711L197.256 79.8225C196.917 80.128 196.477 80.2968 196.021 80.2961ZM185.667 75.3579C185.635 75.3579 185.602 75.3579 185.568 75.3555C185.08 75.3294 184.622 75.1107 184.294 74.7474C183.967 74.3841 183.798 73.9058 183.823 73.4176L184.657 57.5215C184.665 57.278 184.722 57.0387 184.825 56.8178C184.928 56.5969 185.074 56.399 185.255 56.2361C185.436 56.0731 185.649 55.9485 185.879 55.8695C186.11 55.7906 186.354 55.759 186.597 55.7768C187.085 55.8028 187.543 56.0215 187.87 56.3849C188.197 56.7482 188.367 57.2264 188.342 57.7147L187.508 73.6107C187.483 74.0821 187.278 74.5261 186.936 74.8511C186.593 75.1762 186.139 75.3574 185.667 75.3579ZM215.754 91.9418C215.721 91.9418 215.689 91.9418 215.655 91.9394L199.753 91.1053C199.264 91.0793 198.806 90.8606 198.479 90.4973C198.152 90.1339 197.982 89.6557 198.007 89.1674C198.016 88.9243 198.074 88.6853 198.177 88.4649C198.28 88.2444 198.427 88.047 198.608 87.8842C198.789 87.7214 199 87.5967 199.231 87.5174C199.461 87.4381 199.704 87.4059 199.947 87.4227L215.849 88.2567C216.33 88.281 216.782 88.4921 217.109 88.8451C217.436 89.1981 217.612 89.6649 217.6 90.1459C217.587 90.6269 217.387 91.084 217.042 91.4196C216.697 91.7552 216.235 91.9427 215.754 91.942V91.9418Z" fill="#989FB0"/>
<path d="M217.74 16.2805C218.879 15.8328 220.124 15.7321 221.32 15.9911C222.516 16.2501 223.608 16.8572 224.459 17.7359C225.31 18.6145 225.882 19.7254 226.102 20.9284C226.322 22.1315 226.181 23.3728 225.697 24.4959C225.213 25.6191 224.407 26.5737 223.381 27.2395C222.354 27.9053 221.154 28.2525 219.931 28.2372C218.707 28.2219 217.516 27.8449 216.507 27.1536C215.498 26.4624 214.716 25.4879 214.26 24.353C213.957 23.5946 213.807 22.7839 213.819 21.9675C213.83 21.1511 214.002 20.3449 214.326 19.5951C214.649 18.8453 215.117 18.1666 215.703 17.5979C216.289 17.0291 216.981 16.5815 217.74 16.2805ZM206.036 6.60038C206.76 6.31548 207.553 6.25146 208.314 6.41639C209.075 6.58132 209.77 6.96781 210.312 7.52713C210.854 8.08645 211.217 8.79356 211.358 9.5593C211.498 10.325 211.408 11.1151 211.1 11.83C210.791 12.5448 210.278 13.1523 209.625 13.576C208.972 13.9997 208.208 14.2205 207.429 14.2106C206.65 14.2008 205.892 13.9607 205.25 13.5206C204.607 13.0805 204.11 12.4601 203.82 11.7377C203.627 11.255 203.532 10.7391 203.539 10.2195C203.547 9.69987 203.656 9.18682 203.862 8.70966C204.068 8.2325 204.366 7.80059 204.739 7.43866C205.112 7.07673 205.553 6.79187 206.036 6.60038Z" fill="#D6DCE8"/>
<defs>
<linearGradient id="paint0_linear_180_482" x1="77.7852" y1="61.1264" x2="104.894" y2="61.1264" gradientUnits="userSpaceOnUse">
<stop stop-color="#989FB0"/>
<stop offset="1" stop-color="#AAB2C5"/>
</linearGradient>
<linearGradient id="paint1_linear_180_482" x1="39.2305" y1="66.752" x2="65.0014" y2="66.752" gradientUnits="userSpaceOnUse">
<stop stop-color="#989FB0"/>
<stop offset="1" stop-color="#AAB2C5"/>
</linearGradient>
<linearGradient id="paint2_linear_180_482" x1="121.824" y1="103.397" x2="145.021" y2="103.397" gradientUnits="userSpaceOnUse">
<stop stop-color="#989FB0"/>
<stop offset="1" stop-color="#AAB2C5"/>
</linearGradient>
<linearGradient id="paint3_linear_180_482" x1="39.2305" y1="109.022" x2="65.0014" y2="109.022" gradientUnits="userSpaceOnUse">
<stop stop-color="#989FB0"/>
<stop offset="1" stop-color="#AAB2C5"/>
</linearGradient>
<linearGradient id="paint4_linear_180_482" x1="115.66" y1="145.667" x2="145.018" y2="145.667" gradientUnits="userSpaceOnUse">
<stop stop-color="#989FB0"/>
<stop offset="1" stop-color="#AAB2C5"/>
</linearGradient>
<linearGradient id="paint5_linear_180_482" x1="77.7852" y1="156.919" x2="86.0125" y2="156.919" gradientUnits="userSpaceOnUse">
<stop stop-color="#989FB0"/>
<stop offset="1" stop-color="#AAB2C5"/>
</linearGradient>
<linearGradient id="paint6_linear_180_482" x1="39.2305" y1="151.293" x2="65.0014" y2="151.293" gradientUnits="userSpaceOnUse">
<stop stop-color="#989FB0"/>
<stop offset="1" stop-color="#AAB2C5"/>
</linearGradient>
<linearGradient id="paint7_linear_180_482" x1="91.1109" y1="29.2187" x2="91.2875" y2="6.95205" gradientUnits="userSpaceOnUse">
<stop stop-color="#989FB0"/>
<stop offset="1" stop-color="#AAB2C5"/>
</linearGradient>
</defs>
</svg>
