<svg width="126" height="28" viewBox="0 0 126 28" fill="none" xmlns="http://www.w3.org/2000/svg">
<path d="M113.459 14.2065L114.516 7.57461L114.966 9.84391L110.173 0.414551H114.888L117.255 5.54006H116.453L120.483 0.414551H125.334L117.529 10.0395L118.741 7.57461L117.685 14.2065H113.459Z" fill="#061125"/>
<path d="M96.6357 14.2065L98.8268 0.414551H105.224C107.05 0.414551 108.354 0.818853 109.136 1.62746C109.932 2.42302 110.212 3.55767 109.978 5.03142C109.847 5.87915 109.534 6.62254 109.039 7.2616C108.543 7.88762 107.898 8.37669 107.102 8.72882C106.306 9.08096 105.393 9.25702 104.363 9.25702L104.402 8.6897H105.439C106.013 8.6897 106.495 8.85924 106.887 9.19834C107.291 9.52439 107.604 9.95477 107.826 10.4895L109.371 14.2065H104.97L103.287 9.86348C103.209 9.66785 103.039 9.53091 102.779 9.45265C102.531 9.36136 102.283 9.31571 102.035 9.31571H101.644L100.861 14.2065H96.6357ZM102.113 6.3617H104.011C104.611 6.3617 105.067 6.25084 105.38 6.02913C105.693 5.80742 105.883 5.48137 105.948 5.05098C106.026 4.55538 105.928 4.19673 105.654 3.97502C105.38 3.74026 104.95 3.62288 104.363 3.62288H102.544L102.113 6.3617Z" fill="#061125"/>
<path d="M81.9156 6.90838C82.1374 5.4868 82.6003 4.2739 83.3046 3.26966C84.0089 2.26543 84.9023 1.50247 85.9847 0.980793C87.0803 0.446072 88.3193 0.178711 89.7017 0.178711C91.3189 0.178711 92.6362 0.511282 93.6534 1.17642C94.6838 1.82852 95.4076 2.7219 95.8249 3.85655C96.2423 4.99121 96.3336 6.26932 96.0988 7.6909C95.8771 9.11248 95.4141 10.3254 94.7098 11.3296C94.0056 12.3339 93.1057 13.1033 92.0101 13.6381C90.9277 14.1728 89.6887 14.4401 88.2932 14.4401C86.689 14.4401 85.3718 14.1076 84.3414 13.4424C83.3242 12.7773 82.6069 11.8774 82.1895 10.7427C81.7852 9.59503 81.6939 8.31692 81.9156 6.90838ZM86.2977 7.10401C86.1673 7.92566 86.1673 8.6234 86.2977 9.19725C86.4412 9.7711 86.7086 10.208 87.0998 10.508C87.5041 10.7949 88.0193 10.9384 88.6453 10.9384C89.5322 10.9384 90.2234 10.6253 90.719 9.99933C91.2276 9.36028 91.5602 8.52559 91.7167 7.49527C91.8471 6.67363 91.8406 5.9824 91.6971 5.42159C91.5537 4.84775 91.2798 4.41736 90.8755 4.13044C90.4842 3.83047 89.9691 3.68049 89.33 3.68049C88.4432 3.68049 87.7585 3.99349 87.2759 4.61951C86.7933 5.23248 86.4673 6.06065 86.2977 7.10401Z" fill="#061125"/>
<path d="M72.6742 14.2065L74.3175 3.81851H70.3267L70.8744 0.414551H83.0817L82.534 3.81851H78.5431L76.8998 14.2065H72.6742Z" fill="#061125"/>
<path d="M64.2856 14.4406C62.6162 14.4406 61.2468 14.108 60.1773 13.4429C59.1079 12.7777 58.3514 11.8778 57.908 10.7432C57.4776 9.5955 57.3733 8.31738 57.595 6.90885C57.8167 5.48727 58.2993 4.27436 59.0427 3.27013C59.7861 2.25285 60.7447 1.48338 61.9184 0.961696C63.1053 0.426974 64.4486 0.166134 65.9484 0.179177C66.8222 0.192219 67.6243 0.309596 68.3547 0.53131C69.085 0.753024 69.6849 1.03343 70.1544 1.37252L68.8046 4.67866C68.2829 4.3787 67.7938 4.16351 67.3374 4.03309C66.894 3.90267 66.3788 3.83746 65.7919 3.83746C64.8007 3.83746 63.9595 4.11134 63.2683 4.6591C62.5901 5.19382 62.1662 5.98286 61.9967 7.02622C61.8793 7.80874 61.9119 8.48041 62.0945 9.04121C62.2771 9.60202 62.6031 10.0324 63.0726 10.3324C63.5422 10.6323 64.1421 10.7823 64.8724 10.7823C65.4072 10.7823 65.9354 10.7106 66.457 10.5671C66.9918 10.4106 67.5656 10.1367 68.1786 9.74548L69.2154 13.0516C68.5242 13.4951 67.7612 13.8407 66.9266 14.0885C66.0919 14.3232 65.2115 14.4406 64.2856 14.4406Z" fill="#061125"/>
<path d="M50.6689 14.2065L52.86 0.414551H57.0856L54.8946 14.2065H50.6689Z" fill="#061125"/>
<path d="M40.7767 14.2065L36.6294 0.414551H41.0311L43.6525 10.2743H42.42L48.152 0.414551H52.6515L44.1416 14.2065H40.7767Z" fill="#061125"/>
<path d="M81.124 27.6986V19.0786H84.8899C85.8354 19.0786 86.565 19.3028 87.0785 19.7511C87.6002 20.1994 87.861 20.823 87.861 21.6218C87.861 22.1516 87.7428 22.604 87.5065 22.979C87.2782 23.3539 86.9481 23.6433 86.5161 23.8471C86.0841 24.0427 85.5746 24.1405 84.9877 24.1405L85.1589 23.9082H85.5746C85.917 23.9082 86.2226 23.9979 86.4916 24.1772C86.7606 24.3565 86.9807 24.6296 87.1519 24.9964L88.4112 27.6986H86.675L85.4034 24.8986C85.2893 24.6133 85.1141 24.4258 84.8777 24.3362C84.6494 24.2465 84.3723 24.2017 84.0462 24.2017H82.7013V27.6986H81.124ZM82.7013 23.0401H84.6331C85.1874 23.0401 85.6072 22.926 85.8925 22.6978C86.1859 22.4614 86.3327 22.119 86.3327 21.6707C86.3327 21.2224 86.1859 20.8841 85.8925 20.6559C85.6072 20.4276 85.1874 20.3135 84.6331 20.3135H82.7013V23.0401Z" fill="#061125"/>
<path d="M73.3633 27.6986V19.0786H79.171V20.3135H74.8794V22.6978H78.8898V23.9449H74.8794V26.4514H79.171V27.6986H73.3633Z" fill="#061125"/>
<path d="M67.3337 27.6986V20.3747H64.4849V19.0786H71.7599V20.3747H68.911V27.6986H67.3337Z" fill="#061125"/>
<path d="M55.5854 27.6986V19.0786H56.7715L61.7722 25.5466H61.4543V19.0786H62.9216V27.6986H61.7356L56.747 21.2305H57.0527V27.6986H55.5854Z" fill="#061125"/>
<path d="M47.8242 27.6986V19.0786H53.632V20.3135H49.3404V22.6978H53.3508V23.9449H49.3404V26.4514H53.632V27.6986H47.8242Z" fill="#061125"/>
<path d="M42.9757 27.821C42.0791 27.821 41.3088 27.6417 40.6648 27.283C40.029 26.9162 39.54 26.4027 39.1976 25.7425C38.8553 25.0741 38.6841 24.2875 38.6841 23.3827C38.6841 22.4779 38.8553 21.6954 39.1976 21.0351C39.54 20.3749 40.029 19.8654 40.6648 19.5068C41.3088 19.1399 42.0791 18.9565 42.9757 18.9565C43.5789 18.9565 44.121 19.0421 44.6019 19.2133C45.091 19.3845 45.5108 19.6372 45.8613 19.9714L45.3477 21.2185C44.9646 20.9088 44.5937 20.6887 44.2351 20.5583C43.8846 20.4197 43.4811 20.3504 43.0246 20.3504C42.1524 20.3504 41.484 20.6153 41.0194 21.1452C40.5629 21.6668 40.3347 22.4127 40.3347 23.3827C40.3347 24.3527 40.5629 25.1026 41.0194 25.6324C41.484 26.1622 42.1524 26.4272 43.0246 26.4272C43.4811 26.4272 43.8846 26.362 44.2351 26.2315C44.5937 26.093 44.9646 25.8647 45.3477 25.5468L45.8613 26.794C45.5108 27.12 45.091 27.3727 44.6019 27.552C44.121 27.7314 43.5789 27.821 42.9757 27.821Z" fill="#061125"/>
<path d="M20.5827 0.519535C28.0346 0.519553 30.9364 4.45606 31.7755 7.50103C32.2394 9.18433 31.9944 10.9616 31.8531 11.9846C31.8097 12.2995 31.7755 12.5431 31.7755 12.6903C32.9558 13.2578 33.8802 13.4313 34.5099 13.55C35.2494 13.6893 35.5827 13.7527 35.4496 14.2867C34.7446 14.3179 31.2171 15.1108 31.1702 15.1213C30.6466 15.9143 29.4576 17.6425 28.8908 18.2115C28.1824 18.9223 23.6458 23.9997 22.0442 25.9775C20.4423 27.9548 16.4799 28.518 15.9164 26.1327C15.5166 23.8773 15.8023 23.065 16.757 22.2306C17.4925 21.728 17.3652 21.0518 17.4925 19.7351C17.7296 17.2854 17.4929 12.1612 20.1505 11.2479C20.2793 11.12 20.487 10.6563 20.8502 9.86402C21.2436 9.00553 21.5762 7.54909 21.9928 6.4276C22.5916 4.81599 22.3577 3.69221 22.2794 2.95297C22.201 2.21367 21.3591 0.812301 20.5827 0.519535ZM11.8579 0.508789C11.5721 0.660576 11.2896 0.868134 11.0245 1.15357C10.4735 1.74672 10.9411 1.75987 10.9588 1.76013C10.9428 1.80936 10.0801 4.47579 10.197 4.83357C10.2792 5.08411 10.576 5.34281 10.5755 5.71596C10.5744 6.41297 9.14648 7.63045 9.41612 7.907C9.70186 8.19995 10.023 8.07948 10.197 8.27237C10.5041 8.61314 10.0233 8.79425 10.0227 9.09626C10.0227 9.39849 10.3182 9.2534 10.197 9.84372C10.1362 10.1399 10.7582 10.0439 10.7582 10.3894C10.7582 10.7349 10.4559 11.0377 10.7582 11.556C11.0607 12.0739 11.9281 11.9653 12.8633 11.7243C14.5134 11.3004 15.6293 15.9207 15.8746 16.9494C15.8565 17.9447 15.7804 19.4959 15.4997 20.6258C15.3857 21.084 15.1637 21.3522 14.8884 21.7279C14.5301 22.2167 14.1511 22.7339 14.0322 23.1345C13.7905 23.9496 13.8812 25.1439 14.0322 25.9775C14.1948 26.8733 14.8884 27.6861 14.8884 27.6861H7.99642L0 0.519535L11.8579 0.508789Z" fill="#061125"/>
</svg>
