<svg width="22" height="16" viewBox="0 0 22 16" fill="none" xmlns="http://www.w3.org/2000/svg">
<path d="M1.50001 13C0.80143 9.70327 0.80143 6.29673 1.50001 3C1.5918 2.66521 1.76914 2.36007 2.01461 2.11461C2.26008 1.86914 2.56522 1.69179 2.90001 1.6C8.26346 0.711459 13.7366 0.711459 19.1 1.6C19.4348 1.69179 19.7399 1.86914 19.9854 2.11461C20.2309 2.36007 20.4082 2.66521 20.5 3C21.1986 6.29673 21.1986 9.70327 20.5 13C20.4082 13.3348 20.2309 13.6399 19.9854 13.8854C19.7399 14.1309 19.4348 14.3082 19.1 14.4C13.7366 15.2887 8.26344 15.2887 2.90001 14.4C2.56522 14.3082 2.26008 14.1309 2.01461 13.8854C1.76914 13.6399 1.5918 13.3348 1.50001 13Z" stroke="#061125" stroke-width="1.5" stroke-linecap="square" stroke-linejoin="round"/>
<path d="M9 11L14 8L9 5V11Z" stroke="#061125" stroke-width="1.5" stroke-linecap="square" stroke-linejoin="round"/>
</svg>
