<svg width="25" height="24" viewBox="0 0 25 24" fill="none" xmlns="http://www.w3.org/2000/svg">
<path d="M22.8974 16.9201V19.9201C22.8985 20.1986 22.8415 20.4743 22.7299 20.7294C22.6183 20.9846 22.4547 21.2137 22.2495 21.402C22.0442 21.5902 21.802 21.7336 21.5381 21.8228C21.2743 21.912 20.9948 21.9452 20.7174 21.9201C17.6402 21.5857 14.6844 20.5342 12.0874 18.8501C9.67122 17.3148 7.62273 15.2663 6.08739 12.8501C4.39737 10.2413 3.34564 7.27109 3.01739 4.1801C2.9924 3.90356 3.02527 3.62486 3.11389 3.36172C3.20252 3.09859 3.34496 2.85679 3.53216 2.65172C3.71936 2.44665 3.9472 2.28281 4.20118 2.17062C4.45517 2.05843 4.72973 2.00036 5.00739 2.0001H8.00739C8.4927 1.99532 8.96319 2.16718 9.33116 2.48363C9.69913 2.80008 9.93947 3.23954 10.0074 3.7201C10.134 4.68016 10.3688 5.62282 10.7074 6.5301C10.8419 6.88802 10.8711 7.27701 10.7913 7.65098C10.7115 8.02494 10.5263 8.36821 10.2574 8.6401L8.98739 9.9101C10.4109 12.4136 12.4838 14.4865 14.9874 15.9101L16.2574 14.6401C16.5293 14.3712 16.8725 14.1859 17.2465 14.1062C17.6205 14.0264 18.0095 14.0556 18.3674 14.1901C19.2747 14.5286 20.2173 14.7635 21.1774 14.8901C21.6632 14.9586 22.1068 15.2033 22.4239 15.5776C22.7411 15.9519 22.9096 16.4297 22.8974 16.9201Z" stroke="#131414" stroke-width="1.5" stroke-linecap="round" stroke-linejoin="round"/>
</svg>
