<svg width="180" height="42" viewBox="0 0 318 75" fill="none" xmlns="http://www.w3.org/2000/svg">
<path d="M111.001 32.5373L96.3418 0.895966H105.412L115.857 24.9524H113.337L123.736 0.895966H132.486L117.827 32.5373H111.001Z" fill="#0C2146"/>
<path d="M136.651 32.5369V0.895569H145.126V32.5369H136.651Z" fill="#0C2146"/>
<path d="M166.377 33.0307C162.865 33.0307 159.826 32.3574 157.261 31.011C154.726 29.6645 152.756 27.7646 151.352 25.3111C149.977 22.8575 149.29 19.9851 149.29 16.6938C149.29 13.4025 149.977 10.5451 151.352 8.12148C152.756 5.66797 154.726 3.76799 157.261 2.42155C159.826 1.07511 162.865 0.401886 166.377 0.401886C168.607 0.401886 170.638 0.701097 172.47 1.29951C174.302 1.86801 175.845 2.69084 177.097 3.76799L174.577 10.2758C173.172 9.2884 171.875 8.60022 170.683 8.21125C169.523 7.79235 168.194 7.58291 166.698 7.58291C163.949 7.58291 161.827 8.37581 160.33 9.96162C158.864 11.5175 158.131 13.7616 158.131 16.6938C158.131 19.656 158.864 21.93 160.33 23.5158C161.827 25.0717 163.949 25.8496 166.698 25.8496C168.194 25.8496 169.523 25.6551 170.683 25.2662C171.875 24.8473 173.172 24.1441 174.577 23.1567L177.097 29.6645C175.845 30.7417 174.302 31.5795 172.47 32.1779C170.638 32.7464 168.607 33.0307 166.377 33.0307Z" fill="#0C2146"/>
<path d="M191.065 32.5369V7.58289H181.262V0.895569H209.343V7.58289H199.54V32.5369H191.065Z" fill="#0C2146"/>
<path d="M211.425 16.6938C211.425 13.4025 212.081 10.5451 213.395 8.12148C214.708 5.66797 216.586 3.76799 219.029 2.42155C221.473 1.07511 224.359 0.401886 227.687 0.401886C231.047 0.401886 233.948 1.07511 236.391 2.42155C238.835 3.76799 240.713 5.66797 242.026 8.12148C243.37 10.5451 244.042 13.4025 244.042 16.6938C244.042 19.9552 243.37 22.8127 242.026 25.2662C240.713 27.7197 238.835 29.6346 236.391 31.011C233.948 32.3574 231.047 33.0307 227.687 33.0307C224.359 33.0307 221.473 32.3574 219.029 31.011C216.617 29.6346 214.738 27.7197 213.395 25.2662C212.081 22.8127 211.425 19.9552 211.425 16.6938ZM220.266 16.6938C220.266 19.656 220.877 21.9749 222.099 23.6504C223.32 25.2961 225.183 26.1189 227.687 26.1189C230.192 26.1189 232.07 25.2961 233.322 23.6504C234.574 21.9749 235.2 19.656 235.2 16.6938C235.2 13.7317 234.574 11.4277 233.322 9.78209C232.07 8.13644 230.192 7.31362 227.687 7.31362C225.183 7.31362 223.32 8.13644 222.099 9.78209C220.877 11.3978 220.266 13.7017 220.266 16.6938Z" fill="#0C2146"/>
<path d="M248.207 32.537V0.895599H263.461C267.187 0.895599 270.058 1.7633 272.074 3.49872C274.12 5.23413 275.143 7.64276 275.143 10.7246C275.143 12.7892 274.685 14.5545 273.769 16.0206C272.853 17.4568 271.524 18.5789 269.783 19.3867C268.042 20.1647 265.966 20.5536 263.553 20.5536L263.965 19.4316H266.256C267.6 19.4316 268.791 19.7907 269.829 20.5088C270.867 21.2269 271.723 22.2292 272.394 23.5158L277.296 32.537H268.042L262.774 22.4387C262.438 21.7804 261.934 21.3316 261.262 21.0922C260.621 20.8529 259.888 20.7332 259.064 20.7332H256.681V32.537H248.207ZM256.681 14.8537H261.995C263.645 14.8537 264.897 14.5395 265.752 13.9112C266.607 13.2529 267.035 12.2805 267.035 10.9939C267.035 9.73723 266.607 8.79472 265.752 8.16638C264.897 7.53804 263.645 7.22387 261.995 7.22387H256.681V14.8537Z" fill="#0C2146"/>
<path d="M287.996 32.537V17.4119L289.691 21.9898L275.215 0.895599H284.973L293.173 13.597H291.524L299.724 0.895599H309.161L294.776 21.9898L296.471 17.4119V32.537H287.996Z" fill="#0C2146"/>
<path d="M54.3037 0.0292969C74.692 0.029394 82.6329 10.7984 84.9287 19.1289C86.1978 23.7341 85.5261 28.5968 85.1396 31.3955C85.0207 32.2571 84.9287 32.9235 84.9287 33.3262C88.1581 34.879 90.6863 35.3551 92.4092 35.6797C94.4321 36.0608 95.3453 36.2328 94.9814 37.6934C93.0512 37.7778 83.3474 39.9612 83.2705 39.9785C81.8379 42.1483 78.5848 46.8768 77.0342 48.4326C75.096 50.3771 62.6849 64.265 58.3027 69.6758C53.9207 75.0864 43.0791 76.6285 41.5371 70.1025C40.4431 63.9322 41.2247 61.7105 43.8369 59.4277C44.7502 58.6295 45.5009 56.2017 45.8496 52.5986C46.4981 45.8967 45.85 31.8804 53.1211 29.3818C53.4735 29.0331 54.04 27.7629 55.0342 25.5938C56.1107 23.245 57.0231 19.2606 58.1631 16.1924C59.801 11.7837 59.1604 8.70988 58.9463 6.6875C58.7322 4.66513 56.4282 0.830489 54.3037 0.0292969ZM33.4766 0C33.0823 0.294993 32.6935 0.638212 32.3193 1.04102C30.8387 2.63511 32.1436 2.64159 32.1475 2.6416C32.1315 2.69074 29.8225 9.8087 30.1328 10.7598C30.3491 11.4219 31.1357 12.1047 31.1348 13.0908C31.1326 14.9316 27.3591 18.1478 28.0703 18.8789C28.8253 19.6532 29.6732 19.3358 30.1328 19.8457C30.9446 20.7464 29.6729 21.2239 29.6729 22.0225C29.6731 22.8205 30.4535 22.4356 30.1328 23.9961C29.972 24.7783 31.6162 24.5238 31.6162 25.4365C31.6162 26.3492 30.8177 27.1477 31.6162 28.5166C32.4148 29.8856 34.7049 29.6005 37.1758 28.9639C41.7329 27.79 44.0624 41.2396 44.5088 43.1348C44.519 45.2861 44.4506 51.0954 43.4717 55.0352C43.1598 56.29 42.5509 57.0239 41.7969 58.0527C40.8169 59.3898 39.7812 60.8036 39.4561 61.8994C38.7948 64.1294 39.0428 67.3953 39.4561 69.6758C39.898 72.1146 41.7773 74.3286 41.7969 74.3516H23.6768L0 0.0292969L33.4766 0Z" fill="#0C2146"/>
<path d="M115.203 74.9253C112.766 74.9253 110.634 74.4243 108.806 73.4224C107.011 72.3881 105.616 70.9174 104.622 69.0104C103.66 67.0711 103.179 64.7763 103.179 62.1259C103.179 59.5079 103.676 57.2615 104.67 55.3869C105.664 53.5122 107.059 52.09 108.854 51.1204C110.65 50.1184 112.766 49.6174 115.203 49.6174C116.774 49.6174 118.297 49.8922 119.772 50.4416C121.247 50.9588 122.466 51.7022 123.428 52.6718L121.841 56.1141C120.943 55.2414 119.933 54.595 118.811 54.1748C117.688 53.7223 116.598 53.496 115.54 53.496C113.231 53.496 111.419 54.2394 110.105 55.7262C108.79 57.213 108.133 59.3624 108.133 62.1744C108.133 65.0187 108.79 67.2004 110.105 68.7196C111.419 70.2387 113.231 70.9982 115.54 70.9982C116.566 70.9982 117.64 70.8043 118.762 70.4164C119.885 69.9963 120.911 69.3337 121.841 68.4287L123.428 71.8709C122.434 72.8406 121.183 73.6001 119.676 74.1496C118.201 74.6667 116.71 74.9253 115.203 74.9253Z" fill="#0C2146"/>
<path d="M142.211 74.9254C138.299 74.9254 135.22 73.8103 132.976 71.5801C130.731 69.3499 129.609 66.2632 129.609 62.32C129.609 59.7666 130.09 57.5364 131.052 55.6294C132.046 53.7224 133.409 52.2518 135.14 51.2175C136.904 50.1509 138.94 49.6176 141.249 49.6176C143.525 49.6176 145.433 50.1024 146.972 51.072C148.511 52.0417 149.682 53.4154 150.483 55.193C151.285 56.9384 151.686 59.007 151.686 61.3988V62.9503H133.409V60.1383H148.367L147.549 60.7685C147.549 58.3444 147.004 56.4698 145.914 55.1446C144.856 53.7871 143.317 53.1083 141.297 53.1083C139.052 53.1083 137.321 53.9002 136.102 55.4839C134.884 57.0354 134.274 59.1848 134.274 61.9321V62.4169C134.274 65.2936 134.964 67.4591 136.343 68.9136C137.753 70.3681 139.742 71.0953 142.307 71.0953C143.718 71.0953 145.032 70.9014 146.251 70.5135C147.501 70.0933 148.688 69.4146 149.81 68.4773L151.397 71.8226C150.275 72.8245 148.912 73.6003 147.309 74.1497C145.706 74.6669 144.006 74.9254 142.211 74.9254Z" fill="#0C2146"/>
<path d="M160.334 74.9261V56.3573C160.334 55.4199 160.286 54.4664 160.19 53.4968C160.126 52.4948 160.045 51.4929 159.949 50.4909H164.663L165.096 55.63H164.519C165.256 53.82 166.394 52.4463 167.933 51.509C169.473 50.5394 171.252 50.0545 173.272 50.0545C176.126 50.0545 178.275 50.8464 179.717 52.4302C181.192 54.0139 181.93 56.4704 181.93 59.7995V74.9261H177.072V60.0904C177.072 57.9249 176.639 56.3734 175.773 55.4361C174.94 54.4664 173.657 53.9816 171.926 53.9816C169.873 53.9816 168.238 54.6281 167.02 55.9209C165.801 57.1815 165.192 58.8945 165.192 61.0601V74.9261H160.334Z" fill="#0C2146"/>
<path d="M202.898 74.9253C200.269 74.9253 198.281 74.2143 196.934 72.7921C195.587 71.3376 194.914 69.1721 194.914 66.2954V53.8354H190.2V50.0538H194.914V43.6056L199.772 42.2966V50.0538H206.505V53.8354H199.772V65.8591C199.772 67.6691 200.092 68.962 200.734 69.7377C201.375 70.5134 202.305 70.9013 203.523 70.9013C204.133 70.9013 204.662 70.8528 205.111 70.7558C205.592 70.6265 206.024 70.4811 206.409 70.3195V74.2951C205.928 74.489 205.367 74.6344 204.726 74.7314C204.084 74.8607 203.475 74.9253 202.898 74.9253Z" fill="#0C2146"/>
<path d="M227.37 74.9254C223.458 74.9254 220.38 73.8103 218.135 71.5801C215.891 69.3499 214.769 66.2632 214.769 62.32C214.769 59.7666 215.25 57.5364 216.211 55.6294C217.206 53.7224 218.568 52.2518 220.3 51.2175C222.063 50.1509 224.1 49.6176 226.408 49.6176C228.685 49.6176 230.593 50.1024 232.132 51.072C233.671 52.0417 234.841 53.4154 235.643 55.193C236.445 56.9384 236.845 59.007 236.845 61.3988V62.9503H218.568V60.1383H233.527L232.709 60.7685C232.709 58.3444 232.164 56.4698 231.074 55.1446C230.016 53.7871 228.476 53.1083 226.456 53.1083C224.212 53.1083 222.48 53.9002 221.262 55.4839C220.043 57.0354 219.434 59.1848 219.434 61.9321V62.4169C219.434 65.2936 220.123 67.4591 221.502 68.9136C222.913 70.3681 224.901 71.0953 227.466 71.0953C228.877 71.0953 230.192 70.9014 231.41 70.5135C232.661 70.0933 233.847 69.4146 234.97 68.4773L236.557 71.8226C235.435 72.8245 234.072 73.6003 232.469 74.1497C230.865 74.6669 229.166 74.9254 227.37 74.9254Z" fill="#0C2146"/>
<path d="M247.479 74.9261V56.5512C247.479 55.5492 247.447 54.5473 247.383 53.5453C247.351 52.511 247.287 51.4929 247.19 50.4909H251.904L252.433 56.7936H251.664C251.984 55.2745 252.529 54.0139 253.299 53.012C254.068 52.01 254.998 51.2666 256.089 50.7818C257.211 50.2969 258.381 50.0545 259.6 50.0545C260.113 50.0545 260.546 50.0869 260.898 50.1515C261.251 50.1838 261.604 50.2485 261.956 50.3454L261.908 54.7089C261.363 54.4826 260.882 54.3533 260.465 54.321C260.081 54.2564 259.6 54.224 259.023 54.224C257.612 54.224 256.409 54.5473 255.415 55.1937C254.421 55.8078 253.668 56.6482 253.155 57.7148C252.642 58.7814 252.385 59.9288 252.385 61.157V74.9261H247.479Z" fill="#0C2146"/>
</svg>
